<svg xmlns="http://www.w3.org/2000/svg" xmlns:xlink="http://www.w3.org/1999/xlink" width="395.804" height="102.8" viewBox="90.115 373.352 395.804 102.8"><path d="M203.851 462.853l-3.499 10.673-3.325-10.673h-1.749l-3.5 10.673-3.5-10.673h-2.275l4.55 12.948h2.449l1.75-4.724 1.4-4.724 1.4 4.724 1.75 4.724h2.449l4.55-12.948zm86.44 0l-3.325 10.673-3.499-10.673h-1.75l-3.5 10.673-3.499-10.673h-2.275l4.549 12.948h2.451l1.749-4.724 1.4-4.724 1.399 4.724 1.75 4.724h2.451l4.548-12.948zm114.437-87.315h8.049v58.443h-8.049v-58.443zm-7.699-2.1v2.275h5.774v58.443h-5.774v2.274h26.597v-2.274h-5.774v-58.443h5.774v-2.1h-26.597v-.175zm-127.21 2.275h8.398l16.623 36.046-3.85 9.449-21.171-45.495zm43.569 0h8.049v58.443h-8.049v-58.443zm-1.925-2.275L297.99 404.76l-14.698-31.146h-20.998v2.1h5.425v58.443h-5.25v2.274h12.949v-2.274h-5.6v-52.494l20.298 43.395h1.574l19.423-44.969v53.894h-5.6v2.274h26.247v-2.274h-5.425V375.54h5.425v-2.1h-20.297z"/><defs><path id="a" d="M90.115 373.438h396.153v102.713H90.115z"/></defs><clipPath id="b"><use xlink:href="#a" overflow="visible"/></clipPath><path clip-path="url(#b)" d="M95.889 433.981v-58.443h-5.774v-2.1h33.771c7 .175 9.8 1.05 12.774 3.85.524.525 1.574 1.575 2.624 3.325 2.275 4.024 2.275 7.174 2.275 9.449 0 1.925-.176 5.424-2.275 9.099-.35.7-1.399 2.274-2.8 3.5-1.05.874-2.1 1.399-3.149 1.925 2.45 1.399 4.024 2.449 5.949 5.074 2.1 2.975 3.5 6.124 3.5 10.674 0 2.449-.351 7.874-4.024 11.724-3.15 3.324-6.824 3.85-10.499 4.024H90.115v-2.275h5.774v.174zm1.925 0h8.049v-58.269h-8.049v58.269zm28.871-29.921c1.575-.35 2.625-.7 4.2-1.575 3.324-2.1 5.249-6.824 5.249-12.248 0-4.725-1.925-9.799-4.725-12.424-2.449-2.1-5.6-2.1-8.398-2.1l1.574 2.1c1.05 1.75 2.975 6.125 2.975 12.424 0 6.999-2.274 11.373-3.675 12.948-.699 1.05-1.399 1.225-2.274 1.75 1.05.524 1.4.7 1.925 1.225.7.525 2.1 2.1 3.149 4.725 1.4 3.5 1.4 7.874 1.4 9.273 0 1.75 0 6.649-2.1 10.85-.525 1.05-.875 1.749-2.101 3.149.875-.175 1.925-.175 2.8-.175 3.325-.351 6.475-1.4 8.749-5.25 1.75-3.149 1.925-6.474 1.925-8.049 0-3.149-.699-5.6-1.05-6.649-.175-.524-.524-1.399-1.225-2.449-2.1-3.675-5.249-5.25-8.399-6.475v-1.05h.001zm-15.923 0h5.949c.35 0 2.975-.175 4.55-1.05 2.1-1.225 4.374-4.55 4.374-12.424 0-1.399 0-2.45-.175-3.674-.175-1.4-.875-7.524-4.374-9.974-.875-.7-1.925-1.05-3.85-1.225h-6.475v28.347zm-.175 29.921h6.649c2.624-.176 4.725-.351 6.474-3.15 1.226-1.925 2.45-5.074 2.45-11.198 0-6.649-1.75-10.148-3.5-11.549-1.399-1.225-2.449-1.75-4.549-1.925h-7.524v27.822z"/><path d="M439.198 375.713h8.574l30.621 52.318v6.649h-5.425l-33.77-58.967zm33.596-2.275v2.275h5.6v41.646l-25.897-43.92H431.5v2.275h5.6v58.269h-5.6v2.274h13.299v-2.274h-5.6v-54.244l32.546 57.394h8.574v-61.418h5.6v-2.275h-13.125v-.002zm-302.888 5.6l10.323 32.021h-20.647l10.324-32.021zm1.049-3.325h8.573l19.073 58.443h-8.749l-18.897-58.443zm-1.225-2.275l-19.772 60.718h-5.6v2.1h13.648v-2.1h-5.774l6.824-20.647h21.698l6.824 20.647h-5.6v2.1H209.1v-2.1h-4.725l-19.598-60.718H169.73zm187.753 5.6l10.324 32.021h-20.473l10.149-32.021zm1.049-3.325h8.574l19.073 58.443h-8.749l-18.898-58.443zm-1.224-2.275l-19.772 60.718h-5.6v2.274h13.648v-2.274h-5.774l6.824-20.647h21.697l6.824 20.647h-5.774v2.274h27.997v-2.274h-5.425l-19.598-60.543-15.047-.175z"/><defs><path id="c" d="M90.115 373.438h396.153v102.713H90.115z"/></defs><clipPath id="d"><use xlink:href="#c" overflow="visible"/></clipPath><path clip-path="url(#d)" d="M258.095 419.633s.35 5.949-3.325 10.324c-4.024 4.724-13.298 4.199-13.298 4.199h-8.399v-58.443h5.6v-2.1h-25.897v2.1h5.425v58.443h-5.774v2.1h46.895l.175-18.723h-1.399v2.1h-.003zm-38.496 14.523v-58.443h7.874v58.443h-7.874z"/><defs><path id="e" d="M90.115 373.438h396.153v102.713H90.115z"/></defs><clipPath id="f"><use xlink:href="#e" overflow="visible"/></clipPath><path clip-path="url(#f)" d="M177.429 465.827c-.875-.875-2.1-1.225-3.675-1.225-.874 0-1.749.175-2.274.524-.524.351-.875.875-.875 1.4 0 1.05 1.05 1.75 3.149 1.925.525 0 1.051.175 1.575.175.35 0 .875.175 1.4.35.524.176 1.05.351 1.399.7.35.175.525.7.875 1.05.175.525.35 1.05.35 1.575 0 1.225-.524 2.274-1.574 2.8-1.05.699-2.275 1.05-3.85 1.05-2.625 0-4.55-.875-5.774-2.45l1.225-1.574c1.05 1.399 2.625 1.925 4.55 1.925.875 0 1.574-.176 2.274-.525s1.05-.875 1.05-1.575c0-.699-.35-1.05-.875-1.399-.524-.35-1.399-.525-2.625-.7-.699-.175-1.399-.175-1.924-.35l-1.575-.525c-.525-.175-.875-.699-1.225-1.05-.351-.524-.351-1.05-.351-1.749 0-.875.351-1.575.875-2.275.525-.524 1.225-1.05 1.925-1.225s1.575-.35 2.45-.35c1.925 0 3.674.524 4.899 1.749l-1.399 1.749z"/><defs><path id="g" d="M90.115 373.438h396.153v102.713H90.115z"/></defs><clipPath id="h"><use xlink:href="#g" overflow="visible"/></clipPath><path clip-path="url(#h)" d="M214.699 457.778c.525-.175.875-.175 1.4 0 .524.175.7.7.7 1.225 0 .525-.176 1.05-.7 1.225-.525.176-.875.176-1.4 0-.524-.175-.699-.699-.699-1.225 0-.524.175-1.05.699-1.225m-.349 18.023h2.1v-12.948h-2.1v12.948z"/><defs><path id="i" d="M90.115 373.438h396.153v102.713H90.115z"/></defs><clipPath id="j"><use xlink:href="#i" overflow="visible"/></clipPath><path clip-path="url(#j)" d="M233.948 465.827c-.875-.875-2.1-1.225-3.675-1.225-.875 0-1.749.175-2.274.524-.525.351-.875.875-.875 1.4 0 1.05 1.05 1.75 3.149 1.925.525 0 1.05.175 1.575.175.35 0 .875.175 1.399.35.525.176 1.05.351 1.4.7.35.175.524.7.875 1.05.175.525.35 1.05.35 1.575 0 1.225-.525 2.274-1.575 2.8-1.05.699-2.274 1.05-3.85 1.05-2.624 0-4.549-.875-5.773-2.45l1.225-1.574c1.05 1.399 2.625 1.925 4.549 1.925.875 0 1.575-.176 2.275-.525s1.05-.875 1.05-1.575c0-.699-.35-1.05-.875-1.399s-1.399-.525-2.625-.7c-.699-.175-1.399-.175-1.925-.35l-1.574-.525c-.525-.175-.875-.699-1.226-1.05-.35-.524-.35-1.05-.35-1.749 0-.875.35-1.575.875-2.275.525-.524 1.225-1.05 1.925-1.225s1.575-.35 2.45-.35c1.924 0 3.674.524 4.899 1.749l-1.399 1.749z"/><defs><path id="k" d="M90.115 373.438h396.153v102.713H90.115z"/></defs><clipPath id="l"><use xlink:href="#k" overflow="visible"/></clipPath><path clip-path="url(#l)" d="M252.146 465.827c-.875-.875-2.1-1.225-3.675-1.225-.875 0-1.75.175-2.274.524-.525.351-.875.875-.875 1.4 0 1.05 1.05 1.75 3.149 1.925.524 0 1.05.175 1.575.175.35 0 .874.175 1.399.35.525.176 1.05.351 1.399.7.351.175.525.7.875 1.05.175.525.351 1.05.351 1.575 0 1.225-.525 2.274-1.575 2.8-1.05.699-2.274 1.05-3.85 1.05-2.625 0-4.55-.875-5.774-2.45l1.225-1.574c1.051 1.399 2.625 1.925 4.55 1.925.875 0 1.575-.176 2.274-.525.7-.35 1.051-.875 1.051-1.575 0-.699-.351-1.05-.875-1.399-.525-.35-1.4-.525-2.625-.7-.7-.175-1.399-.175-1.925-.35l-1.575-.525c-.524-.175-.875-.699-1.225-1.05-.35-.524-.35-1.05-.35-1.749 0-.875.35-1.575.875-2.275.524-.524 1.225-1.05 1.925-1.225.699-.175 1.574-.35 2.449-.35 1.925 0 3.675.524 4.899 1.749l-1.398 1.749z"/><defs><path id="m" d="M90.115 373.438h396.153v102.713H90.115z"/></defs><clipPath id="n"><use xlink:href="#m" overflow="visible"/></clipPath><path clip-path="url(#n)" d="M310.939 475.977v-2.275c-.525.875-1.226 1.575-2.101 1.925-.874.525-1.749.7-2.799.7-1.925 0-3.5-.7-4.725-1.925s-1.925-2.8-1.925-4.899.7-3.675 1.925-4.899 2.8-1.75 4.725-1.75c1.05 0 1.925.175 2.799.7.875.524 1.575 1.05 1.925 1.925v-2.274h2.101v12.948l-1.925-.176zm-4.725-11.2c-1.225 0-2.45.35-3.324 1.225-.875.875-1.4 1.925-1.4 3.5 0 1.399.525 2.625 1.4 3.5.874.874 1.925 1.225 3.324 1.225.875 0 1.574-.175 2.274-.525.7-.35 1.225-.875 1.575-1.399.35-.525.524-1.225.699-1.925.176-.7.176-1.4 0-2.1a8.557 8.557 0 00-.699-1.925 4.14 4.14 0 00-1.575-1.4c-.7-.001-1.399-.176-2.274-.176z"/><defs><path id="o" d="M90.115 373.438h396.153v102.713H90.115z"/></defs><clipPath id="p"><use xlink:href="#o" overflow="visible"/></clipPath><path clip-path="url(#p)" d="M325.812 462.853h4.024v1.75h-4.024v6.824c0 1.575.7 2.449 2.1 2.449.524 0 1.225-.175 1.75-.524l.699 1.75c-.874.35-1.749.524-2.449.699-2.8 0-4.024-1.399-4.024-4.374v-6.824h-2.625v-1.75h2.625v-3.499l2.1-.176v3.675h-.176z"/><defs><path id="q" d="M90.115 373.438h396.153v102.713H90.115z"/></defs><clipPath id="r"><use xlink:href="#q" overflow="visible"/></clipPath><path clip-path="url(#r)" d="M348.559 474.052c-1.399 1.399-2.975 1.925-4.899 1.925s-3.5-.525-4.899-1.75c-1.225-1.225-1.925-2.8-1.925-4.899s.7-3.675 1.925-4.899 2.975-1.75 4.899-1.75c1.75 0 3.324.7 4.725 1.925l-1.4 1.399c-.874-.875-1.925-1.225-3.324-1.225s-2.449.35-3.324 1.225-1.4 1.925-1.4 3.325c0 1.399.525 2.624 1.4 3.499s1.925 1.226 3.324 1.226 2.45-.525 3.324-1.4l1.574 1.399z"/><defs><path id="s" d="M90.115 373.438h396.153v102.713H90.115z"/></defs><clipPath id="t"><use xlink:href="#s" overflow="visible"/></clipPath><path clip-path="url(#t)" d="M358.707 457.604v7.523c1.051-1.574 2.45-2.274 4.55-2.274 1.75 0 3.149.525 4.024 1.575s1.4 2.449 1.4 4.374v7.175h-2.1v-7.175c0-1.225-.351-2.274-.875-2.975-.7-.7-1.575-1.05-2.625-1.05-1.225 0-2.1.35-2.975 1.225-.7.875-1.225 1.75-1.225 2.975v6.824h-2.1v-18.372l1.926.175z"/><defs><path id="u" d="M90.115 373.438h396.153v102.713H90.115z"/></defs><clipPath id="v"><use xlink:href="#u" overflow="visible"/></clipPath><path clip-path="url(#v)" d="M389.155 473.701c-.7.7-1.4 1.4-2.45 1.75s-2.1.525-3.149.525c-2.1 0-3.675-.7-4.899-1.925-1.225-1.226-1.925-2.8-1.925-4.899 0-1.925.7-3.5 1.925-4.899 1.225-1.226 2.8-1.925 4.899-1.925s3.675.699 5.074 1.925c1.225 1.225 1.75 3.149 1.4 5.599h-11.024c.175 1.226.7 2.1 1.575 2.8s1.925 1.05 3.149 1.05c.7 0 1.575-.175 2.274-.35.7-.35 1.4-.7 1.75-1.225l1.401 1.574zm-1.226-5.249c0-1.225-.524-2.274-1.225-2.8-.7-.7-1.75-1.05-3.149-1.05-1.225 0-2.1.35-2.975 1.05s-1.4 1.575-1.575 2.8h8.924z"/><defs><path id="w" d="M90.115 373.438h396.153v102.713H90.115z"/></defs><clipPath id="x"><use xlink:href="#w" overflow="visible"/></clipPath><path clip-path="url(#x)" d="M406.477 465.827c-.875-.875-2.1-1.225-3.674-1.225-.875 0-1.75.175-2.275.524-.524.351-.875.875-.875 1.4 0 1.05 1.05 1.75 3.15 1.925.524 0 1.05.175 1.574.175.35 0 .875.175 1.4.35.524.176 1.05.351 1.399.7.35.175.525.7.875 1.05.175.525.35 1.05.35 1.575 0 1.225-.524 2.274-1.574 2.8-1.05.699-2.275 1.05-3.85 1.05-2.625 0-4.55-.875-5.774-2.45l1.225-1.574c1.05 1.399 2.625 1.925 4.55 1.925.875 0 1.574-.176 2.274-.525s1.05-.875 1.05-1.575c0-.699-.35-1.05-.875-1.399-.524-.35-1.399-.525-2.624-.7-.7-.175-1.4-.175-1.925-.35l-1.575-.525c-.525-.175-.875-.699-1.225-1.05-.351-.524-.351-1.05-.351-1.749 0-.875.351-1.575.875-2.275.525-.524 1.226-1.05 1.925-1.225.7-.175 1.575-.35 2.45-.35 1.925 0 3.675.524 4.899 1.749l-1.399 1.749z"/></svg>