<svg width="126" height="122" fill="none" xmlns="http://www.w3.org/2000/svg"><path fill-rule="evenodd" clip-rule="evenodd" d="M75.913 1.96A4.76 4.76 0 0179.837 0a4.72 4.72 0 011.409.228l20.242 6.6a4.774 4.774 0 011.915 7.886l-3.668 3.722c13.327 14.656 23.389 32.225 26.194 54.975a4.775 4.775 0 01-.863 3.656 4.756 4.756 0 01-6.84.857 4.765 4.765 0 01-1.734-3.33c-2.519-20.423-11.245-35.965-23.428-49.385l-3.036 3.08a4.754 4.754 0 01-4.45 1.312 4.764 4.764 0 01-3.453-3.106h-.001L75.252 6.303a4.777 4.777 0 01.661-4.342zM62.45 7.01v-.005l.001.001a4.734 4.734 0 014.351 2.382l22.984 39.863.585 1.015 1.092 1.894 17.901 31.049a4.737 4.737 0 01-1.727 6.47v.001l-16.712 9.66-24.269 14.026a4.721 4.721 0 01-3.586.473 4.734 4.734 0 01-2.872-2.202h.002L17.632 37.792a4.736 4.736 0 011.732-6.466L60.32 7.64a4.741 4.741 0 012.13-.63zM61.748 20l16.834 29.448C84.248 59.361 89.883 69.223 96 79.919L63.27 99 29 39.089 61.748 20zM1.118 44.703a4.754 4.754 0 013.479-1.699v-.001a4.745 4.745 0 013.287 1.167c.91.792 1.486 1.9 1.613 3.103 2.52 20.459 11.247 36.019 23.43 49.46l3.037-3.09a4.75 4.75 0 013.11-1.428 4.745 4.745 0 012.931.806 4.783 4.783 0 011.848 2.423l6.892 20.231a4.799 4.799 0 01-.14 3.451 4.775 4.775 0 01-2.419 2.456 4.749 4.749 0 01-3.436.179h.002l-20.245-6.613a4.772 4.772 0 01-3.157-3.417 4.792 4.792 0 011.24-4.489h.002l3.663-3.724C12.923 88.835 2.851 71.229.045 48.436a4.795 4.795 0 011.072-3.733z" fill="silver"/></svg>