<svg xmlns="http://www.w3.org/2000/svg" width="25" height="24"><path d="M19.664 7.755a2.57 2.57 0 00-1.953-.898h-3.758c.16-.59.261-1.168.261-1.714C14.214 2.307 11.907 0 9.071 0S3.93 2.307 3.93 5.143c0 .546.1 1.125.26 1.714H2.215c-.945 0-1.714.769-1.714 1.714v10.286c0 .946.769 1.714 1.714 1.714h.857A3.432 3.432 0 006.5 24a3.433 3.433 0 003.429-3.429h4.285A3.433 3.433 0 0017.643 24a3.432 3.432 0 003.428-3.429h1.715c.945 0 1.714-.768 1.714-1.714v-5.143a.86.86 0 00-.206-.558l-4.63-5.401zM9.071 1.715A3.432 3.432 0 0112.5 5.143c0 2.174-2.127 5.435-3.429 7.177-1.314-1.758-3.428-4.986-3.428-7.177a3.433 3.433 0 013.428-3.429zM6.5 22.284a1.715 1.715 0 01-1.714-1.714c0-.91.772-1.714 1.714-1.714.97 0 1.714.844 1.714 1.714 0 .946-.769 1.715-1.714 1.715zm11.143 0a1.715 1.715 0 01-1.714-1.714c0-.927.79-1.714 1.714-1.714.967 0 1.714.838 1.714 1.714 0 .946-.769 1.715-1.714 1.715zm5.143-3.428H20.6c-.586-1.014-1.736-1.714-2.958-1.714-1.22 0-2.37.698-2.958 1.714H9.457a3.479 3.479 0 00-2.958-1.714c-1.22 0-2.37.698-2.958 1.714H2.213V8.571H4.8c.835 1.886 2.382 4.221 3.612 5.692v.001a.859.859 0 00.658.307c.281 0 .552-.18.658-.307 1.243-1.487 2.796-3.855 3.611-5.693h4.371c.251 0 .488.11.651.3l4.424 5.16v4.826zm-4.952-8.468l2.325 2.914c.135.17.007.411-.219.411h-3.738c-.15 0-.273-.115-.273-.257v-2.914c0-.142.122-.257.273-.257h1.413c.086 0 .168.038.219.103zM7.357 5.143a1.715 1.715 0 013.429 0c0 .945-.77 1.714-1.715 1.714a1.716 1.716 0 01-1.714-1.714z"/></svg>