<svg width="72" height="20" xmlns="http://www.w3.org/2000/svg"><path d="M2.018 9.21a20.578 20.578 0 012.05-2.09l.376-.33-.66-.752-.376.33a21.576 21.576 0 00-2.15 2.193l-.325.38.76.65.325-.38zm6.164-4.736a13.79 13.79 0 012.764-.864l.49-.098-.196-.98-.49.098c-1.02.204-2.009.513-2.965.926l-.459.198.397.918.459-.198zm7.55-1.034c.933.106 1.892.29 2.875.55l.483.128.257-.966-.484-.129a21.095 21.095 0 00-3.018-.577l-.497-.056-.113.993.497.057zm7.534 2.277c.86.403 1.737.857 2.63 1.363l.434.246.493-.87-.435-.247a39.479 39.479 0 00-2.697-1.398l-.453-.212-.425.905.453.213zm6.457 3.774l.409.287a66.79 66.79 0 012.395 1.77l.395.306.612-.791-.396-.306a67.789 67.789 0 00-2.43-1.796l-.41-.288-.575.818zm6.671 5.057c.86.607 1.716 1.154 2.566 1.642l.434.248.497-.867-.434-.249a31.385 31.385 0 01-2.486-1.591l-.409-.288-.577.817.409.288zm7.234 3.73c1.008.32 2.009.553 3.002.696l.495.072.143-.99-.495-.071a17.733 17.733 0 01-2.841-.66l-.477-.152-.303.953.476.151zm8.155.632a16.708 16.708 0 002.983-.815l.468-.175-.35-.937-.468.175c-.927.347-1.862.602-2.805.767l-.492.086.172.985.492-.086zm7.557-3.27a26.76 26.76 0 002.39-1.906l.373-.332-.665-.747-.373.333a25.778 25.778 0 01-2.3 1.835l-.41.288.577.817.408-.288zm5.973-5.631a47.557 47.557 0 001.871-2.387l.296-.402-.805-.593-.296.403a46.558 46.558 0 01-1.832 2.336l-.321.383.766.643.321-.383zm4.34-6.025l.263-.425c.515-.834 1.026-1.7 1.535-2.601l.245-.435-.87-.492-.246.436a75.181 75.181 0 01-1.515 2.566l-.263.426.851.525z" fill="#979797"/></svg>