<svg width="112" height="68" xmlns="http://www.w3.org/2000/svg"><path d="M111.91 66.608a63.258 63.258 0 00-.748-2.93l-.136-.482-.962.27.135.482c.268.955.514 1.917.736 2.884l.112.487.975-.224-.112-.487zm-2.304-7.729a65.135 65.135 0 00-1.11-2.812l-.195-.46-.921.388.194.46a64.43 64.43 0 011.094 2.77l.173.469.938-.346-.173-.469zm-3.243-7.376a70.041 70.041 0 00-1.438-2.659l-.248-.434-.869.494.248.435c.494.868.966 1.742 1.417 2.62l.229.445.89-.457-.23-.444zm-4.09-6.963a77.344 77.344 0 00-1.132-1.658l-.879-1.23-.81.586.292.405a76.925 76.925 0 011.696 2.45l.277.417.833-.553-.277-.417zm-4.493-6.114l-.317-.387a88.702 88.702 0 00-1.95-2.301l-.33-.376-.752.66.33.375a87.703 87.703 0 011.928 2.276l.317.387.774-.634zm-5.304-5.99l-.35-.357c-.463-.476-.934-.95-1.412-1.422l-1.083-1.054-.695.719.36.347c.721.699 1.426 1.401 2.115 2.107l.348.359.717-.698zm-6.187-5.903a118.183 118.183 0 00-2.284-1.964l-.383-.321-.643.766.383.321c.77.646 1.526 1.295 2.265 1.948l.375.33.662-.75-.375-.33zm-5.817-4.818l-.396-.306a136.789 136.789 0 00-2.403-1.814l-.402-.297-.594.804.402.297c.54.398 1.072.798 1.6 1.199l1.181.908.612-.791zm-6.913-5.029a87.665 87.665 0 00-2.535-1.633l-.425-.264-.527.85.425.263c.563.35 1.122.705 1.677 1.067l1.245.826.556-.83-.416-.279zm-6.886-4.162A88.228 88.228 0 0064 11.13l-.448-.224-.447.895.447.223c.89.445 1.772.905 2.644 1.379l.44.239.477-.88-.44-.238zM59.41 8.996a91.002 91.002 0 00-2.79-1.148l-.466-.183-.365.931.465.183c.929.364 1.849.743 2.76 1.135l.459.198.396-.918-.46-.198zm-7.508-2.852a95.561 95.561 0 00-1.913-.612l-1.444-.434-.285.958.48.143a94.94 94.94 0 012.848.894l.474.157.315-.95-.475-.156zM44.15 3.928c-.972-.235-1.952-.457-2.94-.666l-.489-.104-.207.979.49.103c.978.207 1.948.427 2.91.66l.486.118.236-.972-.486-.118zm-7.852-1.585a111.54 111.54 0 00-1.982-.306l-1.494-.207-.135.99.496.068c.661.09 1.32.185 1.974.286l1.474.236.16-.987-.493-.08zm-7.484-.97l-.497-.045c-.663-.061-1.328-.117-1.997-.168l-1.504-.106-.068.997.499.034c.666.045 1.33.096 1.99.151l1.485.134.092-.996zM20.785.86l-.5-.015c-.997-.029-2-.047-3.01-.054l-.5-.003-.007 1 .5.003c.668.005 1.334.014 1.997.029l1.491.04.03-1zM12.74.832l-.5.014c-.996.028-1.998.066-3.007.114l-.5.024.048.999.5-.024c.668-.032 1.333-.06 1.996-.083l1.491-.045-.028-1zm-8.038.41l-.498.04c-.662.053-1.327.11-1.995.17l-1.5.144.097.995.498-.048c.666-.065 1.329-.126 1.99-.183l1.486-.12-.08-.997z" fill="#979797"/></svg>