<svg xmlns="http://www.w3.org/2000/svg" width="151" height="68"><g fill="none" fill-rule="evenodd"><path fill="#211A52" d="M129.526 21.212H150v5.548h-14.54v4.975h13.585v5.358h-13.586v5.357h14.885V48h-20.817V21.212zm-31.694 0h5.51l8.574 12.819 8.15-12.82h5.357V48h-5.93V31.926l-6.966 10.678h-1.569l-7.194-10.792V48h-5.932V21.212zm-36.34 0h22.54v5.548h-8.324V48h-5.93V26.76h-8.286v-5.548zM43.07 37.196v5.433h5.926c3.558 0 4.86-.803 4.86-2.755 0-1.874-1.186-2.678-4.554-2.678H43.07zm0-10.257v4.899h6.347c2.372 0 3.596-.88 3.596-2.258 0-1.761-.842-2.641-4.095-2.641H43.07zm-5.932-5.548h12.776c7.002 0 9.26 2.832 9.26 6.85 0 2.64-1.109 4.439-2.602 5.74 2.182 1.033 3.483 2.909 3.483 6.239 0 5.625-4.402 7.959-10.448 7.959h-12.47V21.39zM1.494 28.93c0-4.248 4.016-8.152 10.37-8.152 4.555 0 8.19 1.875 10.484 4.936L18.37 29.54c-1.53-1.683-3.749-3.213-6.736-3.213-2.755 0-4.017.994-4.017 2.525 0 4.095 14.924 1.76 14.924 11.443 0 4.859-4.363 8.495-10.14 8.495-6.469 0-10.562-3.061-12.4-6.543l4.325-3.598c1.761 2.832 4.63 4.592 7.921 4.592 2.985 0 4.173-1.148 4.173-2.487 0-4.67-14.925-2.105-14.925-11.825zm24.533 19.249h5.932V21.39h-5.932v26.788z"/><path fill="#E60C2D" d="M87.195 26.788h5.932V0h-5.932v26.788zm2.955 2.736c2.27 0 4.152 1.884 4.152 4.155 0 2.266-1.88 4.148-4.152 4.148-2.267 0-4.15-1.882-4.15-4.148 0-2.271 1.885-4.155 4.15-4.155zM87.174 67.35h5.932V40.562h-5.932V67.35z"/></g></svg>