<svg width="31" height="31" fill="none" xmlns="http://www.w3.org/2000/svg"><path d="M29.712.301c-.39-.39-1.03-.39-1.42 0l-7.23 7.23c-1.68-.91-3.68-1.52-6.06-1.52-8.16 0-12.09 7.27-12.91 9 .5 1.07 2.11 4.13 5.11 6.38l-6.33 6.33-.58.58c-.39.39-.39 1.03 0 1.42.2.19.45.29.71.29.26 0 .51-.1.71-.29l28-28c.39-.39.39-1.03 0-1.42zm-18.88 17.46c-.52-.79-.83-1.73-.83-2.75 0-2.76 2.24-5 5-5 1.02 0 1.96.31 2.75.83l-6.92 6.92zm10.691-5.27l-1.609 1.61c.06.29.09.6.09.91 0 2.76-2.24 5-5 5-.31 0-.62-.03-.91-.09l-1.61 1.61-1.75 1.75c1.27.46 2.69.73 4.27.73 8.16 0 12.09-7.27 12.91-9-.42-.89-1.602-3.16-3.72-5.19l-2.67 2.67z" fill="#000"/></svg>