<svg xmlns="http://www.w3.org/2000/svg" width="27" height="36"><path d="M6.612.965l-.019.01c-6.931 3.808-8.31 11.511-2.298 22.661 6.01 11.147 13.184 14.135 20.142 10.314 2.14-1.137 2.728-3.993 1.233-5.938l-3.106-3.986-.146-.18c-1.651-1.924-4.574-2.198-6.534-.554l-1.08.906-.313-.375a26.32 26.32 0 01-4.758-8.93l-.143-.482 1.338-.45c2.483-.837 3.803-3.537 2.979-6.038l-1.677-4.75C11.435.867 8.764-.178 6.612.965zm1.214 2.758l.193-.109a.974.974 0 011.378.547l1.67 4.73c.302.917-.188 1.92-1.098 2.227l-1.9.64c-1.162.362-1.82 1.611-1.55 2.8 1.21 4.57 3.392 8.655 6.474 12.127.896.91 2.299.993 3.232.238l1.588-1.332c.71-.596 1.801-.473 2.383.277l3.102 3.98c.366.477.219 1.193-.287 1.462-5.374 2.952-10.795.694-16.075-9.098-5.22-9.68-4.269-15.515.89-18.489z"/></svg>