<svg xmlns="http://www.w3.org/2000/svg" width="24" height="28"><path d="M23.067 10.717l-.496-.012.592-.39a.47.47 0 00.194-.26c.053-.174 1.261-4.335-1.695-9.805a.473.473 0 00-.697-.16c-4.405 3.175-5.515 8.2-5.794 10.564-.202-.357-.377-.786-.42-1.24a.475.475 0 00-.89-.188c-.097.173-2.035 3.69-1.767 6.58-.137-.145-.237-.281-.27-.39a.478.478 0 00-.817-.17c-.092.107-2.249 2.656-.993 4.788 1.663 2.823 1.98 3.87 1.999 4.26a32.449 32.449 0 01-1.393 2.32c-1.077-.755-2.361-1.039-3.598-.777-.374.079-.727.2-1.07.318l-.07.024c-.916.314-1.807.582-2.659.425-.368-.067-.729-.216-1.112-.373-.498-.205-1.014-.416-1.593-.467a.471.471 0 00-.516.433.476.476 0 00.433.516c.435.038.862.214 1.315.4.41.168.835.343 1.3.428 1.079.199 2.143-.119 3.14-.46l.072-.025c.33-.114.64-.22.957-.287 1.109-.235 2.275.09 3.2.893.007.006.015.008.023.013.006.005.01.013.016.017.023.017.049.025.074.037.016.007.03.017.046.022.05.017.101.027.152.027.071 0 .14-.018.206-.049.021-.01.037-.029.056-.042.034-.023.07-.04.098-.073.007-.007.008-.017.014-.025.005-.006.013-.008.017-.014a31.514 31.514 0 001.757-2.875c.22-.23 1.563-1.551 3.857-2.097 2.739-.653 4.77-2.36 5.301-4.455a.476.476 0 00-.292-.562l-.909-.344 1.298-.276a.478.478 0 00.315-.23c.044-.077 1.083-1.937 1.083-5.543a.476.476 0 00-.464-.476zm-1.358 5.365l-2.657.565a.476.476 0 00-.07.911l2.002.76c-.596 1.547-2.299 2.841-4.47 3.358a9.499 9.499 0 00-2.61 1.051c3.598-7.236 6.76-16.95 6.925-17.46a.477.477 0 00-.907-.293c-.041.129-3.513 10.797-7.265 18.101-.328-.85-.923-1.999-1.822-3.525-.632-1.073.038-2.423.511-3.154.464.523 1.125.958 1.298 1.068.178.113.41.095.57-.044a.478.478 0 00.117-.559c-.828-1.786.158-4.562.833-6.083a5.692 5.692 0 001.056 1.521.474.474 0 00.809-.339c0-.07.083-6.809 5.052-10.763 2.144 4.292 1.574 7.67 1.404 8.424l-1.708 1.123a.477.477 0 00.25.874l1.545.04c-.066 2.44-.64 3.932-.863 4.424z" fill="#7078A4"/></svg>