<svg width="191" height="36" xmlns="http://www.w3.org/2000/svg"><path d="M163.838.83h25.896v7.02h-18.393v6.292h17.185v6.778h-17.185v6.776h18.828v7.02h-26.331V.831zm-40.09 0h6.97l10.845 16.216L151.873.83h6.775v33.884h-7.502V14.383l-8.81 13.507h-1.985l-9.1-13.651v20.476h-7.503V.831zm-45.966 0h28.51v7.02H95.765v26.866h-7.501V7.85H77.782V.83zM54.479 21.05v6.871h7.495c4.5 0 6.146-1.015 6.146-3.484 0-2.37-1.498-3.388-5.759-3.388H54.48zm0-12.975v6.197h8.028c3 0 4.548-1.113 4.548-2.856 0-2.228-1.065-3.341-5.18-3.341H54.48zm-7.504-7.018h16.16c8.857 0 11.712 3.583 11.712 8.665 0 3.34-1.401 5.615-3.29 7.26 2.76 1.307 4.406 3.68 4.406 7.892 0 7.115-5.568 10.068-13.216 10.068H46.975V1.057zM1.89 10.593C1.89 5.22 6.97.282 15.006.282c5.763 0 10.36 2.372 13.263 6.244l-5.034 4.84c-1.936-2.129-4.742-4.064-8.52-4.064-3.485 0-5.081 1.257-5.081 3.194 0 5.18 18.877 2.226 18.877 14.474 0 6.146-5.518 10.746-12.827 10.746-8.181 0-13.359-3.872-15.683-8.277l5.47-4.55c2.228 3.581 5.857 5.808 10.02 5.808 3.775 0 5.278-1.452 5.278-3.146 0-5.906-18.879-2.663-18.879-14.958zm31.032 24.349h7.503V1.057h-7.503v33.885z" fill="#211A52" fill-rule="evenodd"/></svg>