<svg xmlns="http://www.w3.org/2000/svg" width="14" height="14"><path d="M12.502.24a.82.82 0 011.159 1.159L1.399 13.66a.818.818 0 01-1.159 0 .818.818 0 010-1.158zm-1.659 7.545a3.062 3.062 0 013.058 3.058 3.062 3.062 0 01-3.058 3.058 3.062 3.062 0 01-3.058-3.058 3.062 3.062 0 013.058-3.058zm0 1.639c-.783 0-1.42.636-1.42 1.42 0 .782.637 1.419 1.42 1.419.783 0 1.42-.637 1.42-1.42 0-.782-.637-1.42-1.42-1.42zM3.058 0a3.062 3.062 0 013.058 3.058 3.062 3.062 0 01-3.058 3.058A3.061 3.061 0 010 3.058 3.062 3.062 0 013.058 0zm0 1.639c-.783 0-1.42.636-1.42 1.42a1.42 1.42 0 002.84-.001c0-.783-.637-1.42-1.42-1.42z" fill="#878787"/></svg>