<svg xmlns="http://www.w3.org/2000/svg" width="273" height="197"><path d="M242.972 0H30.462C13.88 0 .438 13.428.438 29.986A35.113 35.113 0 000 35.522v125.956C0 181.096 15.924 197 35.567 197h201.866C257.076 197 273 181.096 273 161.478V29.986C272.996 13.428 259.555 0 242.972 0zM214.28 33.62l-77.047 61.878L59.109 33.62H214.28zM33.66 139.875V56.368l46.63 36.937-46.63 46.57zm24.07 23.505l49.108-49.047 20.005 15.842a16.915 16.915 0 0010.462 3.643c3.829 0 7.579-1.322 10.545-3.71l20.988-16.854 50.189 50.126H57.728zm181.608-27.258l-44.115-44.06 44.115-35.433v79.493z" fill="#FFF"/></svg>