<svg xmlns="http://www.w3.org/2000/svg" width="19" height="20"><path d="M6 14v2H4v-2h2zm3 0v2H7v-2h2zm6 0v2h-2v-2h2zm-3 0v2h-2v-2h2zm-6-3v2H4v-2h2zm3 0v2H7v-2h2zm6 0v2h-2v-2h2zm-3 0v2h-2v-2h2zm5-4H1.997V4.971c0-.536.408-.971.91-.971h.965v2h1.876V4h7.501v2h1.876V4h.937c.518 0 .938.448.938 1v2zm0 10c0 .55-.422 1-.938 1H2.935c-.518 0-.938-.448-.938-1V9H17v8zm-16.94.761C.06 18.865.97 20 2.017 20h15.176C18.241 20 19 18.979 19 17.761c0-.389-.03-12.401-.03-13.053C18.97 2.626 18.703 2 15.176 2V0h-1.897v2H5.691V0H3.794v2H1.897C.854 2 0 2.9 0 4l.06 13.761z" fill="#8A8A8A" fill-rule="evenodd"/></svg>