<svg width="56" height="70" xmlns="http://www.w3.org/2000/svg"><path d="M52 10.65h-2.667V9.318a4.002 4.002 0 00-4-3.993H29.2A6.675 6.675 0 0022.667 0a6.675 6.675 0 00-6.532 5.325H4c-2.205 0-4 1.792-4 3.993v47.923a4.002 4.002 0 004 3.994h1.333v3.994a4.002 4.002 0 004 3.993H52c2.205 0 4-1.792 4-3.993V14.643a4.002 4.002 0 00-4-3.993zM4 58.573a1.333 1.333 0 01-1.333-1.332V9.318c0-.734.597-1.33 1.333-1.33h12v2.662H9.333c-2.205 0-4 1.791-4 3.993v43.93H4zm49.333 6.656c0 .734-.597 1.33-1.333 1.33H9.333A1.333 1.333 0 018 65.23V14.643c0-.735.597-1.331 1.333-1.331H16v3.994c0 3.67 2.99 6.656 6.667 6.656 3.676 0 6.666-2.986 6.666-6.656v-1.334a4.002 4.002 0 00-4-3.994c-2.205 0-4 1.792-4 3.994v2.665H24v-2.665a1.333 1.333 0 012.667 0v1.334a4.002 4.002 0 01-4 3.993c-2.206 0-4-1.792-4-3.993V6.656a4.002 4.002 0 014-3.994c2.205 0 4 1.792 4 3.994v1.331h18.666c.736 0 1.334.597 1.334 1.331v1.332H32v2.662h20c.736 0 1.333.596 1.333 1.331V65.23zM32 15.974h13.333v2.663H32v-2.663zm0 5.325h13.333v2.663H32v-2.663zM16 31.95h29.333v2.662H16V31.95zm0 5.325h29.333v2.662H16v-2.662zm0 5.324h29.333v2.663H16v-2.663zm28 10.65H17.333A1.333 1.333 0 0116 51.917v-2.663c0-.735.597-1.33 1.333-1.33H44c.736 0 1.333.595 1.333 1.33v2.663c0 .734-.597 1.33-1.333 1.33z" fill="#4055C8"/></svg>