<svg width="178" height="21" xmlns="http://www.w3.org/2000/svg"><path d="M3.3.253L1.776 0 0 10.741l1.524.253.842-5.076 6.541 1.084-.841 5.076 1.524.253 1.781-10.744-1.524-.253-.706 4.262L2.6 4.512 3.3.253zM18.543 9.47l-.169 1.183c-.146 1.009-1.509 1.736-3.349 1.47-1.128-.163-1.693-.76-1.583-1.517.142-.98 1.022-.988 2.606-.941a6.852 6.852 0 002.498-.198l-.003.003zm-.37 2.871a1.342 1.342 0 001.2 1.523c.384.05.771.07 1.158.062l.168-1.158c-.146.006-.292 0-.437-.018-.564-.082-.654-.5-.534-1.335l.472-3.239c.282-1.944-.612-2.786-3.268-3.17-2.449-.355-3.875.393-4.252 2.263l1.5.217c.24-1.132 1.063-1.482 2.681-1.248 1.439.209 2.054.676 1.929 1.537-.14.965-1.053.787-2.847.724-2.307-.076-3.773.105-4.041 1.96-.215 1.484.706 2.557 2.709 2.847a4.152 4.152 0 003.565-.969l-.003.004zm4.719-6.227l-.982 8.003 1.384.17.651-5.3.083-1.534 2.166 6.959 1.28.157L31.2 8.34l-.291 1.505-.651 5.3 1.384.17.985-8.007-2.038-.255-3.6 5.947-2.053-6.643-2.044-.243zm19.511 6.549l.029-.284c.268-2.676-1.191-4.452-3.932-4.726a4.088 4.088 0 00-4.836 3.838c-.261 2.582 1.274 4.4 3.975 4.669a4.111 4.111 0 004.514-2.287l-1.687-.171a2.513 2.513 0 01-2.691 1.115 2.6 2.6 0 01-2.6-2.887l7.228.733zm-7.1-1.76a2.935 2.935 0 015.656.573l-5.656-.573zm10.482-2.3l-1.45-.12-.665 8.043 1.45.12.24-2.9 1.594-1.072 2.875 4.362 1.959.162-3.688-5.323 4.066-2.749-2.153-.178-4.521 3.163.293-3.508zm9.02.708l-1.453-.095-.526 8.056 1.452.095.236-3.609 4.912.321-.236 3.609 1.452.095.527-8.056-1.453-.095-.21 3.219-4.912-.321.211-3.219zm7.318.45l3.236 8.25c-.389 1.121-.843 1.473-1.891 1.419a5.72 5.72 0 01-.85-.134l-.071 1.378c.447.068.775.1 1 .112 1.993.1 2.361-.613 3.448-2.75l3.982-7.814-1.693-.088-3.035 6.647-2.388-6.929-1.738-.091zm8.989.484l-.024 1.23 3.284.064-.133 6.839 1.455.028.133-6.839 3.285.064.024-1.23-8.024-.156zm9.2.221l-.112 8.066 4.636.062c1.9.025 3.026-.8 3.047-2.39.023-1.7-1.017-2.429-2.983-2.456l-3.18-.043.043-3.225-1.451-.014zm1.4 4.475l3.045.041c1.2.016 1.6.367 1.589 1.207-.011.825-.511 1.194-1.606 1.179l-3.06-.041.032-2.386zm16.635-4.688c-2.775.039-4.491 1.774-4.455 4.369.036 2.595 1.8 4.221 4.576 4.182 2.776-.039 4.477-1.714 4.44-4.309-.037-2.595-1.786-4.282-4.561-4.242zm.019 1.35a2.926 2.926 0 11-2.929 2.967 2.706 2.706 0 012.929-2.968v.001zm10.9-1.349l.344 8.063 1.454-.062-.292-6.834 4.916-.21.291 6.834 1.454-.062-.344-8.062-7.823.333zm13.784-.94c-2.769.172-4.4 1.986-4.238 4.575.162 2.589 2 4.127 4.768 3.955 2.768-.172 4.388-1.925 4.227-4.514-.161-2.589-1.986-4.189-4.755-4.017l-.002.001zm.084 1.347a2.924 2.924 0 11-2.782 3.1 2.7 2.7 0 012.784-3.101l-.002.001zm12.516-.791l.456 5.59-4.932.4a6.553 6.553 0 00.626-4.007l-.136-1.659 3.986-.324zm-5.466-.787l.227 2.78a5.978 5.978 0 01-.791 4.127l-.792.065.294 3.6 1.375-.112-.194-2.376 6.8-.556.195 2.376 1.375-.112-.295-3.6-.822.067L137 8.525l-6.816.558zm15.353 2.544l.121 1.194c.1 1.015-1.044 2.051-2.9 2.238-1.134.115-1.828-.328-1.905-1.089-.1-.985.753-1.207 2.3-1.545a6.863 6.863 0 002.386-.8l-.002.002zm.336 2.876a1.343 1.343 0 001.538 1.186c.385-.045.765-.12 1.139-.221l-.118-1.164a2.68 2.68 0 01-.429.089c-.567.057-.757-.33-.842-1.166l-.329-3.254c-.2-1.955-1.269-2.556-3.941-2.285-2.463.249-3.666 1.321-3.579 3.227l1.508-.153c-.042-1.157.672-1.7 2.3-1.861 1.448-.147 2.158.158 2.245 1.024.1.97-.831 1.019-2.588 1.393-2.258.485-3.636 1.017-3.447 2.883.151 1.493 1.3 2.311 3.319 2.106a4.152 4.152 0 003.226-1.806l-.002.002zm4.526-7.37l-1.445.176 1.326 10.856 1.444-.177-.491-4.02a3.881 3.881 0 003.254 1.023 4.276 4.276 0 10-1.022-8.49 3.777 3.777 0 00-2.919 1.837l-.147-1.205zm3.066.729a2.731 2.731 0 013.277 2.577 2.948 2.948 0 01-5.852.715 2.749 2.749 0 012.577-3.295l-.002.003zm7.233-2.035l-1.441.2 1.127 7.992 1.441-.2-.407-2.882 1.318-1.4 3.768 3.62 1.946-.274-4.768-4.373 3.359-3.579-2.14.3-3.711 4.084-.492-3.488zm16.386 1.894l-.045-.282c-.424-2.653-2.3-3.995-5.022-3.558a4.089 4.089 0 00-3.691 4.952c.41 2.564 2.36 3.923 5.042 3.494a4.113 4.113 0 003.777-3.37l-1.674.268a2.515 2.515 0 01-2.316 1.769 2.6 2.6 0 01-3.258-2.123l7.187-1.15zm-7.321.123a2.936 2.936 0 015.616-.9l-5.616.9z" fill="#7078A4" fill-rule="evenodd"/></svg>