<svg width="121" height="74" xmlns="http://www.w3.org/2000/svg"><path d="M.509 1.095c.19.986.402 1.97.636 2.953l.115.486.973-.231-.116-.487a68.86 68.86 0 01-.626-2.91L1.396.413l-.982.19.095.49zm1.974 7.81c.3.957.62 1.912.962 2.865l.169.47.94-.337-.168-.47a73.608 73.608 0 01-.949-2.826l-.15-.478-.954.3.15.476zm2.823 7.567a82.14 82.14 0 001.25 2.746l.216.451.902-.431-.215-.451a81.14 81.14 0 01-1.236-2.713l-.198-.459-.918.398.199.459zm3.548 7.213c.481.875.981 1.748 1.499 2.62l.255.429.86-.51-.255-.43a91.315 91.315 0 01-1.483-2.591l-.242-.438-.876.482.242.438zm3.914 6.476l.277.416c.553.83 1.122 1.658 1.707 2.485l.29.408.815-.578-.289-.408a104.85 104.85 0 01-1.69-2.461l-.278-.416-.832.554zm4.653 6.514l.307.395c.611.786 1.237 1.571 1.878 2.355l.317.387.774-.633-.317-.387a119.27 119.27 0 01-1.862-2.336l-.307-.395-.79.614zm5.117 6.206l.331.375c.44.497.886.993 1.338 1.489l1.023 1.11.734-.68-.34-.366c-.455-.492-.904-.984-1.347-1.477l-.99-1.114-.75.663zm5.481 5.885l.352.356c.467.47.939.942 1.417 1.412l1.08 1.054.697-.718-.359-.348c-.48-.467-.955-.934-1.425-1.402l-1.052-1.057-.71.703zm5.783 5.587l.37.338c.488.447.983.895 1.482 1.342l1.128 1.001.663-.749-.375-.331c-.502-.444-.999-.889-1.49-1.333l-1.103-1.006-.675.738zm6.485 5.571a64.49 64.49 0 002.438 1.785l.41.286.571-.82-.41-.286a63.49 63.49 0 01-2.4-1.757l-.396-.305-.61.793.397.304zm6.699 4.508c.87.508 1.752.995 2.646 1.46l.443.232.462-.887-.443-.23a61.727 61.727 0 01-2.604-1.438l-.432-.253-.504.864.432.252zm7.208 3.61c.925.391 1.862.762 2.81 1.111l.47.173.345-.938-.47-.173a63.054 63.054 0 01-2.766-1.094l-.46-.195-.39.92.46.196zm7.64 2.681c.964.274 1.94.527 2.926.76l.487.115.23-.973-.487-.115a67.468 67.468 0 01-2.884-.749l-.481-.136-.273.962.481.136zm7.832 1.738c.986.161 1.983.304 2.989.427l.496.061.122-.992-.496-.061a74.824 74.824 0 01-2.95-.422l-.493-.081-.161.987.493.08zm8.02.885c.995.06 2 .102 3.015.127l.5.012.024-1-.5-.012a85.13 85.13 0 01-2.98-.125l-.499-.03-.06.998.5.03zm8.07.111a97.02 97.02 0 003.01-.137l.5-.03-.06-.998-.5.03a98.24 98.24 0 01-2.98.136l-.5.015.03 1 .5-.016zm7.546-.509l.497-.054c.66-.07 1.323-.149 1.99-.232l1.497-.198-.134-.99-.495.066c-.996.134-1.984.254-2.965.36l-.497.054.107.994zm7.886-1.09l.493-.087c.653-.115 1.31-.236 1.968-.362l1.482-.291-.196-.98-.49.097c-.657.13-1.312.256-1.963.376l-1.467.261.173.985zm7.877-1.597l.486-.115c.968-.228 1.942-.468 2.923-.72l.484-.124-.249-.969-.484.125c-.974.25-1.942.488-2.903.715l-.487.115.23.973zm7.779-2.021l.48-.14a184.71 184.71 0 001.918-.566l1.442-.442-.294-.955-.478.147c-.64.197-1.279.39-1.915.578l-1.431.417.278.96z" fill="#979797"/></svg>