<svg xmlns="http://www.w3.org/2000/svg" width="26" height="34"><path d="M13 0c7.18 0 13 5.806 13 12.97 0 2.226-.564 4.372-1.62 6.275l-.094.161-.035.09-.05.095-.061.092-.06.075a12.87 12.87 0 01-1.125 1.553l-.236.268L13.696 33.6c-.377.503-1.11.53-1.527.087l-.079-.095-8.778-11.973A12.907 12.907 0 010 12.97C0 5.806 5.82 0 13 0zm0 2C6.924 2 2 6.912 2 12.97c0 2.618.922 5.09 2.626 7.116l.237.274 8.042 10.962 8.272-11.014c.298-.33.577-.679.847-1.064l.202-.296.198-.309.035-.065a10.873 10.873 0 001.514-4.834l.02-.37.007-.4C24 6.912 19.076 2 13 2zm0 4.983c3.313 0 6 2.68 6 5.987s-2.687 5.988-6 5.988-6-2.68-6-5.988c0-3.307 2.687-5.987 6-5.987zm0 2c-2.21 0-4 1.785-4 3.987s1.79 3.988 4 3.988 4-1.786 4-3.988-1.79-3.987-4-3.987z" fill="#4055C8"/></svg>