<svg xmlns="http://www.w3.org/2000/svg" width="42" height="26"><path d="M15.993.05a3.58 3.58 0 00-2.861.758L1.315 11.023a3.58 3.58 0 00-.51 5.033l6.794 8.32a3.568 3.568 0 002.77 1.31c.797 0 1.599-.264 2.262-.806L24.45 14.665a3.582 3.582 0 001.314-2.653L26 4.888c0-.054.002-.107 0-.16 1.875-.334 3.67-.3 5.389.1 3.019.7 5.867 2.588 8.546 5.68l.308.362.32.384.767-.642-.32-.383c-2.9-3.464-6.032-5.595-9.396-6.376-1.85-.429-3.771-.467-5.766-.116a3.584 3.584 0 00-2.827-2.495zm-.633.819c.158 0 .317.013.475.04l6.923 1.175a2.85 2.85 0 012.2 1.834 20.71 20.71 0 00-3.743 1.275l-.426.194-.046.02a2.757 2.757 0 00-1.13-.369 2.766 2.766 0 00-2.417 4.498 2.759 2.759 0 002.144 1.013c.614 0 1.233-.203 1.745-.621a2.766 2.766 0 00.392-3.888l.076.097.08-.036c1.194-.53 2.36-.93 3.497-1.196v.081l-.233 7.019a2.847 2.847 0 01-1.047 2.112L12.21 24.18a2.852 2.852 0 01-4.007-.402L1.51 15.583a2.852 2.852 0 01.406-4.007l11.64-10.063A2.852 2.852 0 0115.36.869zm3.973 5.025a1.876 1.876 0 011.47.696 1.894 1.894 0 01-2.933 2.395 1.895 1.895 0 011.463-3.091z" fill="#7078A4"/></svg>