<svg xmlns="http://www.w3.org/2000/svg" width="52" height="17"><path d="M21.208 0L18 16h3.889L25 0h-3.792zm-5.64.105l-4.433 10.842-1.838-9.263C9.081.632 8.217.105 7.351.105H.108L0 .526c1.514.316 3.135.842 4.216 1.369.649.316.757.631.973 1.368L8.541 16h4.54L20 0h-4.432v.105zM48.786 0h-3.643c-.857 0-1.5.421-1.822 1.158L37 16h4.393l.857-2.421h5.357L48.143 16H52L48.786 0zm-5.143 10.316l2.25-6 1.286 6h-3.536zM31.175 4.904c0-.545.542-1.199 1.842-1.417.65-.109 2.275-.109 4.225.763L38 .763C37.025.436 35.617 0 33.992 0c-4.225 0-7.15 2.288-7.15 5.449 0 2.397 2.166 3.705 3.683 4.468 1.625.762 2.167 1.307 2.167 2.07 0 1.09-1.3 1.635-2.6 1.635-2.167 0-3.359-.545-4.334-1.09L25 16.128c.975.436 2.817.872 4.767.872 4.441 0 7.366-2.18 7.366-5.667 0-4.14-6.066-4.468-5.958-6.43z" fill="#0268AB"/></svg>