<svg xmlns="http://www.w3.org/2000/svg" width="15" height="21"><path d="M14.011.411a.672.672 0 00-.143-.217l-.009-.005a.632.632 0 00-.206-.138c-.04-.016-.084-.018-.127-.027C13.484.016 13.442 0 13.399 0h-3.066a.664.664 0 100 1.328h1.462L8.807 4.317a5.454 5.454 0 00-7.21.438A5.438 5.438 0 000 8.62v.005c0 2.785 2.09 5.08 4.788 5.407v2.105H2.663a.663.663 0 100 1.328h2.125v2.399a.664.664 0 001.329 0v-2.4h2.125a.663.663 0 100-1.327H6.117v-2.105a5.453 5.453 0 004.323-3.217l.005-.011c.062-.143.119-.288.169-.437l.01-.029c.046-.14.086-.282.122-.427l.013-.056c.03-.133.057-.268.078-.404l.014-.099a5.59 5.59 0 00.043-.519c.003-.07.01-.138.01-.209 0-.038-.005-.076-.006-.114-.001-.08-.007-.158-.012-.237-.006-.092-.01-.184-.02-.274-.01-.09-.027-.18-.042-.27-.013-.078-.022-.156-.038-.232a5.326 5.326 0 00-.31-.992l-.007-.016a5.43 5.43 0 00-.722-1.232l2.987-2.989V3.73a.664.664 0 001.329 0V.665a.638.638 0 00-.052-.254zm-4.88 8.305a3.09 3.09 0 01-.012.256 3.685 3.685 0 01-7.334-.002c-.006-.059-.007-.12-.01-.18-.002-.056-.007-.113-.007-.17a3.684 3.684 0 017.369.003l-.005.093z" fill="#878787"/></svg>