<svg xmlns="http://www.w3.org/2000/svg" width="28" height="21"><path d="M14.352 0c1.321.006 6.096.044 9.442.304.547.067 1.74.074 2.804 1.262.839.907 1.112 2.965 1.112 2.965s.28 2.416.28 4.833v2.264c0 2.417-.28 4.833-.28 4.833s-.274 2.058-1.112 2.962c-1.065 1.188-2.257 1.195-2.804 1.265-3.918.3-9.799.311-9.799.311s-7.278-.07-9.517-.3c-.623-.124-2.02-.088-3.086-1.277C.553 18.518.28 16.46.28 16.46S0 14.045 0 11.627V9.121c.018-2.332.28-4.59.28-4.59s.274-2.058 1.112-2.965C2.458.378 3.649.371 4.196.304c3.346-.26 8.12-.298 9.441-.303zM10.5 5.25v10.5l8.75-5.25-8.75-5.25z" fill="#748FB1"/></svg>