<svg xmlns="http://www.w3.org/2000/svg" width="56" height="38"><path d="M28.168 0h-.924C16.398 0 0 4.361 0 10.934V29.58c0 5.175 7.304 7.932 12.576 7.932.53 0 .96-.43.96-.96V23.148a45.826 45.826 0 0114.17-2.244c4.809.04 9.584.798 14.17 2.247v13.4c0 .53.43.96.96.96 5.272 0 12.576-2.756 12.576-7.932V10.934C55.412 4.361 39.014 0 28.168 0zM11.616 35.56c-4.33-.295-9.696-2.515-9.696-5.977V15.112c.14.144.289.284.445.423l.107.093c.183.16.375.316.576.468l.08.062c.22.16.451.315.691.465l.161.1c.244.147.497.29.761.426.039.02.079.037.118.057.25.125.509.244.776.357.048.02.092.041.14.06a13.869 13.869 0 001.096.398c.316.103.64.2.977.284l.087.02c.32.08.652.15.99.214.065.012.13.025.196.036.352.063.713.115 1.084.157.075.01.15.016.226.024.387.04.78.073 1.184.092V35.56h.001zm16.09-16.576a48.444 48.444 0 00-14.17 2.14v-3.213a.96.96 0 00-.96-.96c-5.214 0-8.601-1.966-9.968-4.013a3.68 3.68 0 01-.688-2.004c0-4.557 14.5-9.014 25.324-9.014h.924c10.823 0 25.324 4.457 25.324 9.014 0 2.522-3.704 6.016-10.656 6.016a.96.96 0 00-.96.96v3.217a51.266 51.266 0 00-14.17-2.143zm25.783-3.87l.003 14.466c0 3.463-5.366 5.683-9.696 5.977V18.852c.403-.019.794-.052 1.18-.092l.229-.024c.369-.043.73-.095 1.081-.156l.2-.038c.336-.063.665-.133.984-.212.03-.008.061-.014.091-.021a15 15 0 00.974-.284c.068-.022.136-.043.203-.066.307-.104.606-.214.893-.332l.144-.062c.266-.112.524-.23.772-.355.04-.02.082-.039.12-.059.264-.135.517-.278.76-.425l.163-.1c.24-.15.47-.305.69-.465.028-.02.053-.042.081-.063.202-.152.394-.307.576-.467l.108-.093c.155-.139.304-.28.444-.423zM19.677 7.798c1.78 0 2.848.88 2.848 2.067a1.778 1.778 0 01-1.397 1.729 1.836 1.836 0 011.562 1.759c0 1.33-1.178 2.276-3.002 2.276a4.094 4.094 0 01-3.133-1.263l1.078-1.242c.516.525 1.22.822 1.957.824.759 0 1.177-.319 1.177-.759 0-.474-.364-.714-1.32-.714l-.89.011v-1.584h.892c.759.01 1.167-.242 1.167-.683 0-.461-.451-.737-1.133-.737a2.436 2.436 0 00-1.716.803l-1.056-1.143a3.703 3.703 0 012.966-1.344zm8.491.003a3.76 3.76 0 012.375.791l-.868 1.419a2.247 2.247 0 00-1.497-.573c-.89 0-1.462.638-1.627 1.705a2.864 2.864 0 011.748-.594 2.39 2.39 0 012.552 2.42c0 1.593-1.288 2.649-2.969 2.649-2.254 0-3.32-1.55-3.32-3.771 0-2.397 1.398-4.046 3.606-4.046zm8.137 0c2.045 0 3.475 1.616 3.475 3.902 0 2.299-1.43 3.915-3.475 3.915-2.034 0-3.475-1.616-3.475-3.915 0-2.286 1.44-3.902 3.475-3.902zm-8.453 4.246l-.125.008a1.275 1.275 0 00-1.177.726c.122.836.453 1.243 1.221 1.243a1.038 1.038 0 001.156-.979 1.071 1.071 0 00-1.2-.99zm8.453-2.54c-.901 0-1.54.913-1.54 2.198 0 1.286.639 2.209 1.54 2.209.913 0 1.55-.922 1.55-2.209 0-1.286-.637-2.198-1.55-2.198z" fill="#4055C8"/></svg>