<svg xmlns="http://www.w3.org/2000/svg" width="52" height="43"><path d="M41.843 0c4.242 0 7.679 3.428 7.679 7.655s-3.438 7.654-7.68 7.654c-4.242 0-7.68-3.427-7.68-7.654S37.601 0 41.842 0zM10.157 0c4.242 0 7.682 3.428 7.682 7.655s-3.44 7.654-7.682 7.654c-4.241 0-7.68-3.427-7.68-7.654S5.916 0 10.157 0zM.361 38.609A29.16 29.16 0 0126 23.388a29.16 29.16 0 0125.639 15.22 2.97 2.97 0 01-1.201 4.032 2.989 2.989 0 01-4.045-1.196A23.199 23.199 0 0026 29.334 23.197 23.197 0 005.608 41.443a2.989 2.989 0 01-4.045 1.198 2.968 2.968 0 01-1.202-4.032z" fill="#D8D8D8"/></svg>