<svg width="454" height="455" xmlns="http://www.w3.org/2000/svg"><g transform="rotate(-90 227.5 226.65)" fill="none" fill-rule="evenodd" opacity=".497"><ellipse stroke="#C8C8C8" cx="227" cy="226.15" rx="226.5" ry="225.65"/><ellipse stroke="#C8C8C8" cx="227.425" cy="226.575" rx="220.124" ry="219.273"/><path d="M227.723 386.376v46.794h-.596v-46.794h.596zM246.134 400l1.852 18.304-.53.058-1.853-18.304.531-.058zm-37.418 0l.532.058-1.853 18.304-.531-.058L208.716 400zm55.88-2.962l3.654 17.657-.518.113-3.654-17.657.518-.113zm-73.16 0l.528.11-3.644 17.66-.528-.11 3.644-17.66zm90.431-4.739l5.454 17.598-.505.172-5.454-17.598.505-.172zm-108.295 0l.513.17-5.448 17.6-.512-.17 5.447-17.6zm134.496-27.247l23.952 40.597-.484.274-23.951-40.597.483-.274zm-161.286 0l.483.274-23.951 40.597-.484-.274 23.952-40.597zm151.763 20.732l7.252 16.952-.496.225-7.252-16.952.496-.225zm-142.24 0l.496.225-7.252 16.952-.496-.225 7.253-16.952zM330.09 367.42l10.87 15.074-.454.327-10.87-15.074.454-.327zm-205.33 0l.454.327-10.87 15.074-.454-.327 10.87-15.074zm220.182-11.846l12.11 13.842-.407.374-12.11-13.842.407-.374zm-235.626 0l.403.361-12.114 13.262-.402-.361 12.113-13.262zm248.694-12.44l13.345 12.039-.363.4-13.345-12.037.363-.401zm-261.779-.592l.376.405-13.928 12.034-.376-.404 13.928-12.035zm-11.266-14.216l.318.449-14.58 10.806-.32-.449 14.582-10.806zm284.92 0l14.581 10.806-.318.449-14.581-10.806.319-.449zM87.393 305.82l.275.48-40.847 23.805-.276-.48 40.848-23.805zm280.066 0l40.848 23.805-.276.48-40.847-23.805.275-.48zm20.805-8.885l16.467 7.212-.22.488-16.468-7.212.22-.488zm-321.676 0l.22.488-16.466 7.212-.22-.488 16.466-7.212zM394.77 280.94l17.113 5.973-.171.542-17.113-5.973.171-.542zm-334.097-.593l.176.545-17.704 5.971-.175-.545 17.703-5.97zm-5.304-17.177l.116.504-17.763 3.642-.116-.504 17.763-3.642zm344.115 0l17.763 3.645-.117.501-17.763-3.645.117-.501zm2.92-18.955l18.418 1.841-.058.528-18.417-1.841.058-.528zm-349.957 0l.058.528-18.417 1.841-.058-.528 18.417-1.841zm383.275-18.362v.592h-47.083v-.592h47.083zm-369.51 0v.592H19.13v-.592h47.083zm354.552-20.14l.058.529-18.417 1.84-.058-.527 18.417-1.842zm-386.676 0l18.417 1.842-.058.528-18.417-1.842.058-.528zm383.042-20.731l.117.504-17.764 3.642-.116-.504 17.763-3.642zm-379.407 0l17.762 3.645-.117.501-17.762-3.645.117-.501zm373.984-19.547l.176.544-17.704 5.971-.176-.544 17.704-5.971zm-367.97-.593l17.112 5.974-.171.542-17.113-5.973.172-.543zm360.773-17.177l.22.488-16.466 7.212-.22-.488 16.466-7.212zm-354.168 0l16.467 7.212-.22.488-16.468-7.212.22-.488zm357.69-25.47l.275.48-40.848 23.805-.275-.48 40.847-23.806zm-361.211 0L87.667 146l-.275.48-40.848-23.804.276-.48zm23.882-9.478l14.581 10.806-.318.448-14.581-10.806.318-.448zm313.446 0l.318.448-14.58 10.806-.32-.448 14.582-10.806zm-11.977-15.4l.376.404-13.928 12.034-.376-.404 13.928-12.035zm-288.313-.593l13.345 12.038-.363.4-13.345-12.037.363-.401zM357.244 83.1l.403.362-12.113 13.262-.402-.362L357.244 83.1zm-259.039-.59l12.11 13.842-.407.374-12.11-13.842.407-.374zm25.109-36.132l23.951 40.597-.483.274L122.83 46.65l.484-.273zm208.222 0l.484.273-23.951 40.598-.484-.274 23.951-40.597zm-217.191 23.1l10.87 15.074-.455.327-10.87-15.074.455-.326zm226.16 0l.455.327-10.87 15.074-.454-.327 10.87-15.073zM149.55 49.339l7.252 16.953-.495.225-7.253-16.953.496-.225zm155.752 0l.496.225-7.252 16.953-.496-.225 7.252-16.953zM227.723 19.13v46.795h-.596V19.129h.596zm-59.688 23.1l5.454 17.598-.506.172-5.454-17.598.506-.172zm118.178 0l.512.17-5.447 17.6-.512-.17 5.447-17.6zm-98.499-4.738l3.654 17.657-.518.113-3.654-17.658.518-.112zm78.816 0l.528.11-3.644 17.66-.528-.11 3.644-17.66zm-59.135-3.554l1.853 18.304-.532.058-1.852-18.305.531-.057zm40.06 0l.531.057-1.852 18.305-.531-.058 1.852-18.304z" fill="#C8C8C8"/><circle stroke="#C8C8C8" cx="227.85" cy="226.15" r="65.815"/></g></svg>