<svg width="17" height="18" viewBox="0 0 17 18" fill="none" xmlns="http://www.w3.org/2000/svg">
<path fill-rule="evenodd" clip-rule="evenodd" d="M11.0006 1C14.4508 1.88831 17 5.02035 17 8.7478C17 11.7271 15.3713 14.3261 12.9558 15.7029L15 17.7478H9V11.7478L10.7034 13.4501C12.6262 12.7535 14 10.9111 14 8.7478C14 6.69799 12.7665 4.93628 11.0013 4.16442L11.0006 1ZM5.99935 16.7478C2.54923 15.8595 0 12.7274 0 9C0 6.02065 1.62865 3.4217 4.04422 2.04486L2 0H8V6L6.29661 4.29765C4.37383 4.9943 3 6.83671 3 9C3 11.0498 4.23348 12.8115 5.99868 13.5834L5.99935 16.7478Z" fill="#564BA6"/>
</svg>
