<svg xmlns="http://www.w3.org/2000/svg" width="17" height="22"><path d="M13 0c.246 0 .444.197.444.44v3.08h2.223c.245 0 .444.197.444.44v6.16c0-.243.199-.44.445-.44.245 0 .444.197.444.44v1.76c0 .243-.199.44-.444.44a.442.442 0 01-.445-.44v6.16c0 .243-.199.44-.444.44h-2.223v3.08c0 .243-.198.44-.444.44H3.111a.442.442 0 01-.444-.44v-3.08H.444A.442.442 0 010 18.04V3.96c0-.243.2-.44.444-.44h2.223V.44c0-.243.199-.44.444-.44zm-.6 1H3.6v3.043c0 .24-.194.435-.433.435H1v13.044h2.167c.239 0 .433.194.433.435V21h8.8v-3.043c0-.24.194-.435.433-.435H15V4.478h-2.167a.434.434 0 01-.433-.435V1zm.145 5c.252 0 .455.204.455.455v9.09a.454.454 0 01-.455.455h-9.09A.455.455 0 013 15.545v-9.09C3 6.204 3.204 6 3.455 6zM12 7H4v8h8V7zM8 9c-.224 0 0 .224 0 1v1h1c-.224 0 0 .224 0 1H8c-.776 0-1-.224-1 0v-2c0-.727.197-.97.86-.997z" fill="#7F92FF"/></svg>