<svg xmlns="http://www.w3.org/2000/svg" width="532" height="149"><g transform="rotate(-90 175 175)" fill="none" fill-rule="evenodd" opacity=".497"><ellipse cx="267" cy="266" stroke="#C8C8C8" rx="266.5" ry="265.5"/><ellipse cx="267.5" cy="266.5" stroke="#C8C8C8" rx="259" ry="258"/><path fill="#C8C8C8" d="M267.85 454.46v55.04h-.7v-55.04h.7zm21.656 16.024l2.179 21.53-.626.068-2.178-21.53.625-.068zm-44.011 0l.624.068-2.178 21.53-.626-.068 2.18-21.53zm65.726-3.483l4.298 20.768-.61.133-4.297-20.768.609-.133zm-86.052 0l.621.13-4.285 20.771-.622-.13L225.17 467zm106.366-5.574l6.416 20.699-.595.202-6.415-20.699.594-.202zm-127.378 0l.603.2-6.407 20.701-.603-.2 6.407-20.701zm158.197-32.049l28.172 47.751-.57.322-28.171-47.75.569-.323zm-189.708 0l.57.322-28.173 47.751-.569-.322 28.172-47.75zm178.506 24.385l8.53 19.94-.583.265-8.53-19.94.583-.265zm-167.304 0l.583.265-8.53 19.94-.583-.265 8.53-19.94zm204.408-21.598l12.785 17.73-.534.385-12.785-17.73.534-.385zm-241.512 0l.534.385-12.784 17.73-.535-.385 12.785-17.73zm258.98-13.934l14.244 16.281-.478.44-14.243-16.281.478-.44zm-277.146 0l.474.426-14.247 15.598-.474-.425 14.247-15.599zm292.518-14.63l15.696 14.158-.427.472-15.696-14.159.427-.472zm-307.908-.698l.442.476-16.382 14.155-.442-.476 16.382-14.155zm-13.251-16.72l.374.527-17.15 12.71-.375-.527 17.15-12.71zm335.127 0l17.15 12.71-.375.527-17.15-12.71.375-.528zM102.79 359.706l.324.566-48.045 28-.324-.566 48.045-28zm329.417 0l48.046 28-.324.566-48.045-28 .323-.566zm24.47-10.45l19.37 8.483-.26.574-19.368-8.483.259-.574zm-378.357 0l.26.574-19.37 8.483-.259-.574 19.369-8.483zm386.011-18.811l20.128 7.026-.201.637-20.128-7.025.201-.638zm-392.97-.697l.208.64-20.823 7.024-.207-.64 20.823-7.024zm-6.238-20.205l.137.593-20.893 4.284-.137-.593 20.893-4.284zm404.753 0l20.892 4.288-.138.59-20.892-4.288.138-.59zm3.435-22.294l21.663 2.166-.069.62-21.662-2.165.068-.621zm-411.624 0l.068.62-21.662 2.166-.069-.62 21.663-2.166zM512.5 265.652v.696h-55.38v-.696h55.38zm-434.62 0v.696H22.5v-.696h55.38zm417.026-23.688l.069.62-21.663 2.166-.068-.62 21.662-2.166zm-454.812 0l21.662 2.165-.068.621-21.663-2.166.069-.62zm450.538-24.385l.137.593-20.894 4.284-.136-.593 20.893-4.284zm-446.263 0l20.892 4.287-.138.59-20.892-4.288.138-.59zm439.884-22.992l.207.64-20.823 7.024-.207-.64 20.823-7.024zm-432.81-.696l20.127 7.025-.201.638-20.128-7.026.201-.637zm424.346-20.205l.259.574-19.37 8.483-.258-.574 19.369-8.483zm-416.578 0l19.37 8.483-.26.574-19.369-8.483.26-.574zm420.719-29.959l.324.566-48.046 28-.323-.566 48.045-28zm-424.86 0l48.045 28-.324.566-48.045-28 .324-.566zm28.091-11.147l17.15 12.71-.374.528-17.15-12.71.374-.528zm368.678 0l.375.527-17.15 12.71-.375-.527 17.15-12.71zm-14.087-18.114l.442.476-16.383 14.155-.441-.476 16.382-14.155zm-339.117-.697l15.696 14.159-.427.472-15.696-14.159.427-.472zm321.56-16.024l.474.425-14.247 15.599-.474-.426 14.247-15.598zm-304.685-.697l14.243 16.281-.478.44-14.243-16.281.478-.44zm29.533-42.5l28.172 47.752-.569.322-28.172-47.752.569-.321zm244.914 0l.569.322-28.172 47.752-.57-.322 28.173-47.751zM134.493 81.72l12.785 17.73-.534.385-12.785-17.73.534-.385zm266.014 0l.534.385-12.785 17.73-.534-.385 12.785-17.73zM175.9 58.032l8.53 19.94-.583.265-8.53-19.94.583-.265zm183.198 0l.583.265-8.53 19.94-.583-.265 8.53-19.94zM267.85 22.5v55.04h-.702V22.5h.702zm-70.207 27.172l6.415 20.699-.594.202-6.416-20.699.595-.202zm139.003 0l.603.199-6.407 20.702-.603-.2 6.407-20.701zm-115.855-5.574l4.297 20.768-.609.133-4.298-20.768.61-.133zm92.703 0l.622.13L309.83 65l-.62-.13 4.285-20.771zm-69.554-4.18l2.178 21.53-.624.068-2.18-21.53.626-.068zm47.118 0l.626.068-2.18 21.53-.624-.068 2.178-21.53z"/><circle cx="268" cy="266" r="77.5" stroke="#C8C8C8"/></g></svg>