<svg xmlns="http://www.w3.org/2000/svg" width="50" height="30"><path d="M10.1 17c0 .4.2.6.6.6.7 0 1.1-.6 1.2-1.5h-.4c-.9 0-1.4.3-1.4.9zm25.6 0c0 .4.2.6.6.6.7 0 1.1-.6 1.2-1.5h-.4c-1 0-1.4.3-1.4.9zm-12.2-3c-.5 0-.9.4-1 1.1h1.8c0-.2.2-1.1-.8-1.1zm21.7.2c-.7 0-1.3.9-1.3 2.1 0 .8.3 1.2.8 1.2.8 0 1.3-.9 1.3-2.1.1-.8-.2-1.2-.8-1.2zM34.8 0c-3.8 0-7.3 1.4-10 3.8C22.2 1.4 18.7 0 14.9 0 6.7 0 0 6.7 0 14.9s6.7 14.9 14.9 14.9c3.8 0 7.3-1.4 9.9-3.8 2.6 2.4 6.1 3.8 10 3.8 8.2 0 14.9-6.7 14.9-14.9S43 0 34.8 0zM6.3 18.9l.9-5.8-2.1 5.8H4l-.1-5.8-1 5.8H1.4l1.3-7.6H5l.1 4.7 1.6-4.7h2.5l-1.3 7.6H6.3zm5.4 0v-.6c-.4.5-1 .7-1.7.7-.9 0-1.5-.7-1.5-1.7 0-1.5 1-2.4 2.8-2.4h.7c.1-.2.1-.3.1-.4 0-.4-.3-.6-1-.6-.8 0-1.4.2-1.7.3 0-.1.2-1.4.2-1.4.8-.2 1.3-.3 1.9-.3 1.4 0 2.1.6 2.1 1.8 0 .3 0 .7-.1 1.2-.1.9-.4 2.8-.5 3.3-.2.1-1.3.1-1.3.1zm4.8-3.7c.8.4 1.1.9 1.1 1.7 0 1.4-.8 2.1-2.5 2.1-1 0-1.3-.1-1.7-.2 0-.1.2-1.4.2-1.4.5.2 1 .2 1.5.2.6 0 .9-.2.9-.6 0-.3-.1-.4-.8-.7-.9-.4-1.2-.9-1.2-1.7 0-1.1.6-2.1 2.4-2.1.4 0 1 .1 1.4.1l-.2 1.4c-.4-.1-.8-.1-1.2-.1-.5 0-.8.2-.8.5.1.4.2.5.9.8zm3.5 2.3c.2 0 .3 0 .4-.1l-.2 1.4c-.4.1-.8.2-1.2.2-.8 0-1.3-.5-1.3-1.4 0-.3.1-1 .2-1.6l.7-4.2h1.6l-.2.9h.8l-.2 1.5h-.8c-.2 1.2-.5 2.6-.5 2.8.2.3.4.5.7.5zm3.8.1c.6 0 1.1-.1 1.7-.4l-.3 1.5c-.6.2-1.1.2-1.7.2-1.8 0-2.7-.9-2.7-2.7 0-2.1 1.2-3.7 2.8-3.7 1.3 0 2.2.9 2.2 2.2 0 .5-.1.9-.2 1.5h-3.2c-.1 1 .5 1.4 1.4 1.4zm3.6 1.3h-1.6l.1-.4c.3-1.9.6-3.8.8-5.7h1.5c0 .3-.1.6-.1.9.5-.7.9-1.1 1.6-1-.2.3-.5 1-.6 1.8-1-.1-1.1.6-1.7 4.4zm6.2-.1c-.6.2-1 .2-1.4.2-1.7 0-2.8-1.3-2.8-3.3 0-2.7 1.5-4.6 3.7-4.6.7 0 1.5.3 1.8.4l-.3 1.6c-.6-.3-1-.4-1.4-.4-1.2 0-2.1 1.2-2.1 2.8 0 1.1.6 1.8 1.5 1.8.4 0 .8-.1 1.4-.4l-.4 1.9zm5 .1h-1.3v-.6c-.4.5-1 .7-1.7.7-.9 0-1.5-.7-1.5-1.7 0-1.5 1-2.4 2.8-2.4h.7c.1-.2.1-.3.1-.4 0-.4-.3-.6-1-.6-.8 0-1.4.2-1.7.3 0-.1.2-1.4.2-1.4.8-.2 1.3-.3 1.9-.3 1.4 0 2.1.6 2.1 1.8 0 .3 0 .7-.1 1.2-.2 1-.5 2.9-.5 3.4zm2.2 0h-1.6l.1-.4c.3-1.9.6-3.8.8-5.7h1.5c0 .3-.1.6-.1.9.5-.7.9-1.1 1.6-1-.2.3-.5 1-.6 1.8-1-.1-1.2.6-1.7 4.4zm4.8 0l.1-.6c-.4.5-.9.7-1.5.7-1.2 0-2-1-2-2.6 0-2 1.2-3.8 2.6-3.8.6 0 1.1.3 1.5.8l.4-2.2h1.6l-1.2 7.6h-1.5v.1z" fill="#FF6B00"/></svg>