<svg xmlns="http://www.w3.org/2000/svg" width="58" height="16"><path d="M57 8c-.434 1.016-1.082 1.782-1.954 2.352-.933.61-1.962.851-3.058.85-1.659-.004-3.318-.002-4.977-.002h-.326V16H42V8h15zM4.635.002c1.332.003 2.233.685 2.6 1.98.672 2.372 1.336 4.747 2.004 7.12.028.097.039.21.097.283.038.048.16.066.223.043.059-.021.112-.11.132-.18.638-2.26 1.274-4.52 1.906-6.78.152-.545.295-1.09.663-1.54.468-.571 1.066-.905 1.8-.914 1.607-.02 3.215-.01 4.822-.01.032 0 .064.01.118.018v15.953h-4.743V6.574h-.486l-2.693 9.422h-.235c-.955 0-1.91-.005-2.864.004-.182.002-.256-.052-.307-.233-.847-2.987-1.705-5.971-2.55-8.959-.062-.221-.155-.295-.391-.229v9.397H0V0h.265c1.457 0 2.914-.003 4.37 0zm34.274.01c.024 0 .048.01.091.02v15.955h-4.784v-9.55c-.462-.08-.469-.078-.641.273-1.215 2.474-2.439 4.943-3.636 7.426-.248.515-.473 1.022-.967 1.357-.438.296-.915.487-1.442.493-1.472.017-2.945.012-4.418.014-.032 0-.064-.01-.112-.017V.023h4.782v9.542c.22.078.338.034.436-.169 1.256-2.575 2.517-5.148 3.785-7.718C32.504.663 33.341.073 34.466.03c1.48-.055 2.962-.017 4.443-.018zm13.03.002c2.566.017 4.485 1.073 5.613 3.228.454.867.607 1.79.251 2.755h-.242c-3.036 0-6.07.008-9.106-.003-2.356-.008-4.437-.704-6.166-2.207-1.123-.977-1.87-2.166-2.254-3.547A1.746 1.746 0 0140 .077c-.002-.014.006-.03.014-.07h.272c3.884 0 7.769-.02 11.653.007z" fill="#57BD69" fill-rule="evenodd"/></svg>