<svg xmlns="http://www.w3.org/2000/svg" width="26" height="35"><path d="M6.082.413L6.07.42C-.868 4.186-2.247 11.8 3.895 23.057c6.135 11.245 13.287 14.19 20.24 10.414 1.933-1.014 2.468-3.576 1.113-5.318l-3.239-4.108-.144-.173c-1.525-1.746-4.21-1.992-6.01-.499l-1.557 1.292-.324-.37a27.587 27.587 0 01-5.611-10.391l-.127-.455 1.896-.631a4.37 4.37 0 002.754-5.542L11.14 2.388C10.421.327 8.018-.603 6.082.413zm3.172 2.64l1.742 4.875A2.365 2.365 0 019.5 10.92l-1.983.66c-.935.288-1.47 1.292-1.249 2.252 1.235 4.613 3.471 8.75 6.63 12.266.71.712 1.84.778 2.586.182l1.648-1.367c.99-.82 2.503-.652 3.306.37l3.235 4.104c.59.758.356 1.881-.48 2.32-5.906 3.206-11.897.74-17.542-9.608l-.212-.391C.098 11.708 1.197 5.486 6.803 2.3l.208-.116c.86-.451 1.927-.039 2.243.87z" fill="#4055C8"/></svg>