<svg width="126" height="122" viewBox="0 0 126 122" fill="none" xmlns="http://www.w3.org/2000/svg">
<path fill-rule="evenodd" clip-rule="evenodd" d="M75.9134 1.96068C76.8264 0.706483 78.2896 -0.0238716 79.8368 0.000615944L79.8364 0.000223462C80.3146 0.00448352 80.7896 0.0811401 81.2455 0.228064L101.488 6.82802C103.057 7.34016 104.25 8.62949 104.64 10.2361C105.03 11.8428 104.563 13.5377 103.403 14.7142L99.7351 18.4362C113.062 33.0916 123.124 50.6608 125.929 73.4109C126.153 74.6959 125.841 76.0172 125.066 77.0669C124.292 78.1156 123.123 78.8013 121.829 78.9631C120.537 79.1249 119.235 78.7502 118.226 77.924C117.217 77.0988 116.59 75.8947 116.492 74.5936C113.973 54.171 105.247 38.6292 93.0638 25.2091L90.0277 28.2882C88.8715 29.47 87.1873 29.9661 85.5773 29.6009C83.9664 29.2357 82.6604 28.0602 82.1248 26.4951H82.1237L75.2524 6.30251C74.7551 4.83315 75.0016 3.21381 75.9134 1.96068ZM62.4498 7.00961V7.00538L62.4511 7.00639C63.3254 6.96092 64.1954 7.15968 64.963 7.58047C65.7317 8.00125 66.3684 8.62713 66.8024 9.38834C75.3529 24.2182 82.5101 36.6319 89.7855 49.2507L90.3707 50.2657L91.4629 52.1601C97.0648 61.8762 102.804 71.8313 109.364 83.2087C109.993 84.2965 110.164 85.5885 109.84 86.8022C109.515 88.0159 108.723 89.0509 107.637 89.6789V89.68C102.068 92.8991 96.4965 96.119 90.9247 99.3392C82.8342 104.015 74.7429 108.692 66.6562 113.366C65.5707 113.993 64.2815 114.164 63.0704 113.839C61.8593 113.514 60.8266 112.723 60.1984 111.637H60.1995L17.632 37.792C17.0059 36.7042 16.837 35.4123 17.1611 34.1996C17.4863 32.987 18.2782 31.9541 19.3637 31.3261L60.3201 7.63866C60.9705 7.26334 61.7001 7.04767 62.4498 7.00961ZM61.7481 20C67.6854 30.3847 73.147 39.94 78.5815 49.448C84.2476 59.3612 89.8843 69.2228 96 79.9192L63.2708 99L29 39.089L61.7481 20ZM1.11736 44.7033C1.98561 43.6686 3.24926 43.0499 4.59684 43.0041L4.59706 43.003C5.8001 42.9603 6.97554 43.3774 7.8842 44.17C8.79394 44.9625 9.36995 46.0708 9.49748 47.2729C12.0163 67.7318 20.7437 83.2919 32.9272 96.7325L35.9635 93.6434C36.7883 92.7965 37.8968 92.2877 39.0744 92.2151C40.1126 92.1554 41.1424 92.438 42.0053 93.0215C42.8683 93.605 43.5177 94.4562 43.8535 95.444L50.7445 115.675C51.1281 116.803 51.0782 118.033 50.6052 119.126C50.1323 120.218 49.2694 121.094 48.1864 121.582C47.1034 122.069 45.878 122.133 44.7504 121.761H44.7515L24.5069 115.148C22.9349 114.636 21.7404 113.342 21.3503 111.731C20.9603 110.121 21.429 108.422 22.5906 107.242H22.5916L26.255 103.518C12.9226 88.8346 2.8506 71.2291 0.0450233 48.4357C-0.139902 47.0959 0.250136 45.7391 1.11736 44.7033Z" fill="#C0C0C0"/>
</svg>
